<svg xmlns="http://www.w3.org/2000/svg" xmlns:xlink="http://www.w3.org/1999/xlink" preserveAspectRatio="xMidYMid meet" width="8192" height="2048" viewBox="0 0 8192 2048" style="width:100%;height:100%"><defs><animateMotion repeatCount="indefinite" dur="0.0166667s" begin="0s" xlink:href="#_R_G_L_3_G_L_2_G_L_12_G" fill="freeze" keyTimes="0;1" path="M1024 1024 C1024,1024 1024,1024 1024,1024 " keyPoints="0;1" keySplines="0 0 0 0" calcMode="spline"/><animateMotion repeatCount="indefinite" dur="0.0166667s" begin="0s" xlink:href="#_R_G_L_3_G_L_2_G_L_10_G" fill="freeze" keyTimes="0;1" path="M1024 1024 C1024,1024 1024,1024 1024,1024 " keyPoints="0;1" keySplines="0 0 0 0" calcMode="spline"/><animateMotion repeatCount="indefinite" dur="0.0166667s" begin="0s" xlink:href="#_R_G_L_3_G_L_2_G_L_8_G" fill="freeze" keyTimes="0;1" path="M1024 1024 C1024,1024 1024,1024 1024,1024 " keyPoints="0;1" keySplines="0 0 0 0" calcMode="spline"/><animateMotion repeatCount="indefinite" dur="0.0166667s" begin="0s" xlink:href="#_R_G_L_3_G_L_2_G_L_7_G" fill="freeze" keyTimes="0;1" path="M1024 1024 C1024,1024 1024,1024 1024,1024 " keyPoints="0;1" keySplines="0 0 0 0" calcMode="spline"/><animateMotion repeatCount="indefinite" dur="0.0166667s" begin="0s" xlink:href="#_R_G_L_3_G_L_2_G_L_6_G" fill="freeze" keyTimes="0;1" path="M1023.87 1024.18 C1023.87,1024.18 1023.87,1024.18 1023.87,1024.18 " keyPoints="0;1" keySplines="0 0 0 0" calcMode="spline"/><animateMotion repeatCount="indefinite" dur="0.0166667s" begin="0s" xlink:href="#_R_G_L_3_G_L_2_G_L_5_G" fill="freeze" keyTimes="0;1" path="M1024 1024 C1024,1024 1024,1024 1024,1024 " keyPoints="0;1" keySplines="0 0 0 0" calcMode="spline"/><animateMotion repeatCount="indefinite" dur="0.0166667s" begin="0s" xlink:href="#_R_G_L_3_G_L_2_G_L_4_G" fill="freeze" keyTimes="0;1" path="M1024 1024 C1024,1024 1024,1024 1024,1024 " keyPoints="0;1" keySplines="0 0 0 0" calcMode="spline"/><animateMotion repeatCount="indefinite" dur="0.0166667s" begin="0s" xlink:href="#_R_G_L_3_G_L_2_G_L_3_G" fill="freeze" keyTimes="0;1" path="M1024 1024 C1024,1024 1024,1024 1024,1024 " keyPoints="0;1" keySplines="0 0 0 0" calcMode="spline"/><animateMotion repeatCount="indefinite" dur="0.0166667s" begin="0s" xlink:href="#_R_G_L_3_G_L_2_G_L_2_G" fill="freeze" keyTimes="0;1" path="M1024 1024 C1024,1024 1024,1024 1024,1024 " keyPoints="0;1" keySplines="0 0 0 0" calcMode="spline"/><animateMotion repeatCount="indefinite" dur="0.0166667s" begin="0s" xlink:href="#_R_G_L_3_G_L_2_G_L_1_G" fill="freeze" keyTimes="0;1" path="M1024 1024 C1024,1024 1024,1024 1024,1024 " keyPoints="0;1" keySplines="0 0 0 0" calcMode="spline"/><animateMotion repeatCount="indefinite" dur="0.0166667s" begin="0s" xlink:href="#_R_G_L_3_G_L_2_G_L_0_G" fill="freeze" keyTimes="0;1" path="M1024 1024 C1024,1024 1024,1024 1024,1024 " keyPoints="0;1" keySplines="0 0 0 0" calcMode="spline"/><animateMotion repeatCount="indefinite" dur="0.0166667s" begin="0s" xlink:href="#_R_G_L_3_G_L_1_G_L_17_G" fill="freeze" keyTimes="0;0;1" path="M1277.38 1142.31 C1277.38,1142.31 1024.01,1024 1024.01,1024 C1024.01,1024 1024.01,1024 1024.01,1024 " keyPoints="0;1;1" keySplines="0.333 0 0.667 1;0 0 0 0" calcMode="spline"/><animateMotion repeatCount="indefinite" dur="0.0166667s" begin="0s" xlink:href="#_R_G_L_3_G_L_1_G_L_16_G" fill="freeze" keyTimes="0;0;1" path="M1297.05 1059.84 C1297.05,1059.84 1024.01,1024 1024.01,1024 C1024.01,1024 1024.01,1024 1024.01,1024 " keyPoints="0;1;1" keySplines="0.333 0 0.667 1;0 0 0 0" calcMode="spline"/><animateMotion repeatCount="indefinite" dur="0.0166667s" begin="0s" xlink:href="#_R_G_L_3_G_L_1_G_L_15_G" fill="freeze" keyTimes="0;0;1" path="M1298.96 1011.44 C1298.96,1011.44 1024.01,1024 1024.01,1024 C1024.01,1024 1024.01,1024 1024.01,1024 " keyPoints="0;1;1" keySplines="0.333 0 0.667 1;0 0 0 0" calcMode="spline"/><animateMotion repeatCount="indefinite" dur="0.0166667s" begin="0s" xlink:href="#_R_G_L_3_G_L_1_G_L_14_G" fill="freeze" keyTimes="0;0;1" path="M1300.54 970.27 C1300.54,970.27 1024.01,1024 1024.01,1024 C1024.01,1024 1024.01,1024 1024.01,1024 " keyPoints="0;1;1" keySplines="0.333 0 0.667 1;0 0 0 0" calcMode="spline"/><animateMotion repeatCount="indefinite" dur="0.0166667s" begin="0s" xlink:href="#_R_G_L_3_G_L_1_G_L_13_G" fill="freeze" keyTimes="0;0;1" path="M1275.26 907.06 C1275.26,907.06 1024.01,1024 1024.01,1024 C1024.01,1024 1024.01,1024 1024.01,1024 " keyPoints="0;1;1" keySplines="0.333 0 0.667 1;0 0 0 0" calcMode="spline"/><animateMotion repeatCount="indefinite" dur="0.0166667s" begin="0s" xlink:href="#_R_G_L_3_G_L_1_G_L_12_G" fill="freeze" keyTimes="0;0;1" path="M1227.85 821.73 C1227.85,821.73 1024.01,1024 1024.01,1024 C1024.01,1024 1024.01,1024 1024.01,1024 " keyPoints="0;1;1" keySplines="0.333 0 0.667 1;0 0 0 0" calcMode="spline"/><animateMotion repeatCount="indefinite" dur="0.0166667s" begin="0s" xlink:href="#_R_G_L_3_G_L_1_G_L_11_G" fill="freeze" keyTimes="0;0;1" path="M1237.33 888.1 C1237.33,888.1 1024,1024 1024,1024 C1024,1024 1024,1024 1024,1024 " keyPoints="0;1;1" keySplines="0.333 0 0.833 1;0 0 0 0" calcMode="spline"/><animateMotion repeatCount="indefinite" dur="0.0166667s" begin="0s" xlink:href="#_R_G_L_3_G_L_1_G_L_10_G" fill="freeze" keyTimes="0;0;1" path="M1188.35 796.44 C1188.35,796.44 1024.01,1024 1024.01,1024 C1024.01,1024 1024.01,1024 1024.01,1024 " keyPoints="0;1;1" keySplines="0.333 0 0.667 1;0 0 0 0" calcMode="spline"/><animateMotion repeatCount="indefinite" dur="0.0166667s" begin="0s" xlink:href="#_R_G_L_3_G_L_1_G_L_9_G" fill="freeze" keyTimes="0;0;1" path="M1155.16 777.48 C1155.16,777.48 1024.01,1024 1024.01,1024 C1024.01,1024 1024.01,1024 1024.01,1024 " keyPoints="0;1;1" keySplines="0.333 0 0.667 1;0 0 0 0" calcMode="spline"/><animateMotion repeatCount="indefinite" dur="0.0166667s" begin="0s" xlink:href="#_R_G_L_3_G_L_1_G_L_8_G" fill="freeze" keyTimes="0;0;1" path="M1047.7 749.04 C1047.7,749.04 1024.01,1024 1024.01,1024 C1024.01,1024 1024.01,1024 1024.01,1024 " keyPoints="0;1;1" keySplines="0.333 0 0.667 1;0 0 0 0" calcMode="spline"/><animateMotion repeatCount="indefinite" dur="0.0166667s" begin="0s" xlink:href="#_R_G_L_3_G_L_1_G_L_7_G" fill="freeze" keyTimes="0;0;1" path="M1038.22 780.64 C1038.22,780.64 1024.01,1024 1024.01,1024 C1024.01,1024 1024.01,1024 1024.01,1024 " keyPoints="0;1;1" keySplines="0.333 0 0.667 1;0 0 0 0" calcMode="spline"/><animateMotion repeatCount="indefinite" dur="0.0166667s" begin="0s" xlink:href="#_R_G_L_3_G_L_1_G_L_6_G" fill="freeze" keyTimes="0;0;1" path="M1008.2 801.19 C1008.2,801.19 1024.01,1024 1024.01,1024 C1024.01,1024 1024.01,1024 1024.01,1024 " keyPoints="0;1;1" keySplines="0.333 0 0.667 1;0 0 0 0" calcMode="spline"/><animateMotion repeatCount="indefinite" dur="0.0166667s" begin="0s" xlink:href="#_R_G_L_3_G_L_1_G_L_5_G" fill="freeze" keyTimes="0;0;1" path="M1003.46 772.74 C1003.46,772.74 1024.01,1024 1024.01,1024 C1024.01,1024 1024.01,1024 1024.01,1024 " keyPoints="0;1;1" keySplines="0.333 0 0.667 1;0 0 0 0" calcMode="spline"/><animateMotion repeatCount="indefinite" dur="0.0166667s" begin="0s" xlink:href="#_R_G_L_3_G_L_1_G_L_4_G" fill="freeze" keyTimes="0;0;1" path="M984.49 742.72 C984.49,742.72 1024.01,1024 1024.01,1024 C1024.01,1024 1024.01,1024 1024.01,1024 " keyPoints="0;1;1" keySplines="0.333 0 0.667 1;0 0 0 0" calcMode="spline"/><animateMotion repeatCount="indefinite" dur="0.0166667s" begin="0s" xlink:href="#_R_G_L_3_G_L_1_G_L_3_G" fill="freeze" keyTimes="0;0;1" path="M967.11 769.58 C967.11,769.58 1024.01,1024 1024.01,1024 C1024.01,1024 1024.01,1024 1024.01,1024 " keyPoints="0;1;1" keySplines="0.333 0 0.667 1;0 0 0 0" calcMode="spline"/><animateMotion repeatCount="indefinite" dur="0.0166667s" begin="0s" xlink:href="#_R_G_L_3_G_L_1_G_L_2_G" fill="freeze" keyTimes="0;0;1" path="M916.54 761.68 C916.54,761.68 1024.01,1024 1024.01,1024 C1024.01,1024 1024.01,1024 1024.01,1024 " keyPoints="0;1;1" keySplines="0.333 0 0.667 1;0 0 0 0" calcMode="spline"/><animateMotion repeatCount="indefinite" dur="0.0166667s" begin="0s" xlink:href="#_R_G_L_3_G_L_1_G_L_1_G" fill="freeze" keyTimes="0;0;1" path="M959.21 805.93 C959.21,805.93 1024.01,1024 1024.01,1024 C1024.01,1024 1024.01,1024 1024.01,1024 " keyPoints="0;1;1" keySplines="0.333 0 0.667 1;0 0 0 0" calcMode="spline"/><animate attributeType="XML" attributeName="opacity" dur="0s" from="0" to="1" xlink:href="#time_group"/></defs><g id="_R_G"><g id="_R_G_L_3_G" transform=" translate(2993.633, 1024) translate(-2048, -1024)"><g id="_R_G_L_3_G_L_2_G" transform=" translate(2048, 1024) translate(-1024, -1024)"><g id="_R_G_L_3_G_L_2_G_L_15_G" transform=" translate(1023.979, 1020) translate(0, 0)"><path id="_R_G_L_3_G_L_2_G_L_15_G_D_0_P_0" fill="#465a7e" fill-opacity="1" fill-rule="nonzero" d=" M-311.88 -653.62 C-311.88,-653.62 -413.47,-586.66 -413.47,-586.66 C-413.47,-586.66 -351.08,-494.27 -351.08,-494.27 C-351.08,-494.27 -311.88,-653.62 -311.88,-653.62z "/></g><g id="_R_G_L_3_G_L_2_G_L_14_G" transform=" translate(1024, 1024) translate(0, 0)"><path id="_R_G_L_3_G_L_2_G_L_14_G_D_0_P_0" fill="#5b769f" fill-opacity="1" fill-rule="nonzero" d=" M-564.93 -459.29 C-564.93,-459.29 -413.47,-590.68 -413.47,-590.68 C-413.47,-590.68 -350.94,-498.57 -350.94,-498.57 C-350.94,-498.57 -564.93,-459.29 -564.93,-459.29z "/></g><g id="_R_G_L_3_G_L_2_G_L_13_G" transform=" translate(1024, 1024) translate(0, 0)"><path id="_R_G_L_3_G_L_2_G_L_13_G_D_0_P_0" fill="#465b7e" fill-opacity="1" fill-rule="nonzero" d=" M-366.62 -441.26 C-366.62,-441.26 -599.92,-396.94 -599.92,-396.94 C-599.92,-396.94 -416.62,-247.26 -416.62,-247.26 C-416.62,-247.26 -366.62,-441.26 -366.62,-441.26z "/></g><g id="_R_G_L_3_G_L_2_G_L_12_G"><path id="_R_G_L_3_G_L_2_G_L_12_G_D_0_P_0" fill="#7c92bc" fill-opacity="1" fill-rule="nonzero" d=" M-543.97 -176.9 C-543.97,-176.9 -599.92,-396.94 -599.92,-396.94 C-599.92,-396.94 -416.62,-247.26 -416.62,-247.26 C-416.62,-247.26 -543.97,-176.9 -543.97,-176.9z "/></g><g id="_R_G_L_3_G_L_2_G_L_11_G" transform=" translate(1024, 1024) translate(0, 0)"><path id="_R_G_L_3_G_L_2_G_L_11_G_D_0_P_0" fill="#465b7e" fill-opacity="1" fill-rule="nonzero" d=" M-543.97 -176.9 C-543.97,-176.9 -599.92,-396.94 -599.92,-396.94 C-599.92,-396.94 -709.35,-171 -709.35,-171 C-709.35,-171 -543.97,-176.9 -543.97,-176.9z "/></g><g id="_R_G_L_3_G_L_2_G_L_10_G"><path id="_R_G_L_3_G_L_2_G_L_10_G_D_0_P_0" fill="#546d9b" fill-opacity="1" fill-rule="nonzero" d=" M-543.97 -176.9 C-543.97,-176.9 -511.7,-36.46 -511.7,-36.46 C-511.7,-36.46 -417.13,-246.63 -417.13,-246.63 C-417.13,-246.63 -543.97,-176.9 -543.97,-176.9z "/></g><g id="_R_G_L_3_G_L_2_G_L_9_G" transform=" translate(1024, 1024) translate(0, 0)"><path id="_R_G_L_3_G_L_2_G_L_9_G_D_0_P_0" fill="#5b769e" fill-opacity="1" fill-rule="nonzero" d=" M-543.97 -176.9 C-543.97,-176.9 -511.7,-36.46 -511.7,-36.46 C-511.7,-36.46 -709.35,-171 -709.35,-171 C-709.35,-171 -543.97,-176.9 -543.97,-176.9z "/></g><g id="_R_G_L_3_G_L_2_G_L_8_G"><path id="_R_G_L_3_G_L_2_G_L_8_G_D_0_P_0" fill="#465b7e" fill-opacity="1" fill-rule="nonzero" d=" M-722 -129.88 C-722,-129.88 -709.96,185.8 -709.96,185.8 C-709.96,185.8 -531.35,0.47 -531.35,0.47 C-531.35,0.47 -722,-129.88 -722,-129.88z "/></g><g id="_R_G_L_3_G_L_2_G_L_7_G"><path id="_R_G_L_3_G_L_2_G_L_7_G_D_0_P_0" fill="#465b7e" fill-opacity="1" fill-rule="nonzero" d=" M-525.52 52.31 C-525.52,52.31 -695.43,239.68 -695.43,239.68 C-695.43,239.68 -545.7,266.71 -545.7,266.71 C-545.7,266.71 -525.52,52.31 -525.52,52.31z "/></g><g id="_R_G_L_3_G_L_2_G_L_6_G"><path id="_R_G_L_3_G_L_2_G_L_6_G_D_0_P_0" fill="#546c9c" fill-opacity="1" fill-rule="nonzero" d=" M-513.59 506.6 C-513.59,506.6 -695.43,239.68 -695.43,239.68 C-695.43,239.68 -545.7,266.71 -545.7,266.71 C-545.7,266.71 -513.59,506.6 -513.59,506.6z "/></g><g id="_R_G_L_3_G_L_2_G_L_5_G"><path id="_R_G_L_3_G_L_2_G_L_5_G_D_0_P_0" fill="#546c9c" fill-opacity="1" fill-rule="nonzero" d=" M-500.98 303.89 C-500.98,303.89 -464.94,556.99 -464.94,556.99 C-464.94,556.99 -283.65,413.43 -283.65,413.43 C-283.65,413.43 -500.98,303.89 -500.98,303.89z "/></g><g id="_R_G_L_3_G_L_2_G_L_4_G"><path id="_R_G_L_3_G_L_2_G_L_4_G_D_0_P_0" fill="#465b7e" fill-opacity="1" fill-rule="nonzero" d=" M-218.17 688.84 C-218.17,688.84 -464.94,556.99 -464.94,556.99 C-464.94,556.99 -283.65,413.43 -283.65,413.43 C-283.65,413.43 -218.17,688.84 -218.17,688.84z "/></g><g id="_R_G_L_3_G_L_2_G_L_3_G"><path id="_R_G_L_3_G_L_2_G_L_3_G_D_0_P_0" fill="#465b7e" fill-opacity="1" fill-rule="nonzero" d=" M-243.71 416.48 C-243.71,416.48 -176.46,688.81 -176.46,688.81 C-176.46,688.81 34.77,468.1 34.77,468.1 C34.77,468.1 -243.71,416.48 -243.71,416.48z "/></g><g id="_R_G_L_3_G_L_2_G_L_2_G"><path id="_R_G_L_3_G_L_2_G_L_2_G_D_0_P_0" fill="#546c9c" fill-opacity="1" fill-rule="nonzero" d=" M48.85 515.2 C48.85,515.2 -135.33,701.94 -135.33,701.94 C-135.33,701.94 35.47,719.54 35.47,719.54 C35.47,719.54 48.85,515.2 48.85,515.2z "/></g><g id="_R_G_L_3_G_L_2_G_L_1_G"><path id="_R_G_L_3_G_L_2_G_L_1_G_D_0_P_0" fill="#465b7e" fill-opacity="1" fill-rule="nonzero" d=" M48.85 515.2 C48.85,515.2 83.27,477.69 83.27,477.69 C83.27,477.69 241.53,677.06 241.53,677.06 C241.53,677.06 35.47,719.54 35.47,719.54 C35.47,719.54 48.85,515.2 48.85,515.2z "/></g><g id="_R_G_L_3_G_L_2_G_L_0_G"><path id="_R_G_L_3_G_L_2_G_L_0_G_D_0_P_0" fill="#5b769e" fill-opacity="1" fill-rule="nonzero" d=" M83.27 477.69 C83.27,477.69 241.53,677.06 241.53,677.06 C241.53,677.06 310.63,391.35 310.63,391.35 C310.63,391.35 83.27,477.69 83.27,477.69z "/></g></g><g id="_R_G_L_3_G_L_1_G" transform=" translate(2048, 1024) translate(-1024, -1024)"><g id="_R_G_L_3_G_L_1_G_L_20_G" transform=" translate(1024.01, 1024) translate(0, 0)"><path id="_R_G_L_3_G_L_1_G_L_20_G_D_0_P_0" fill="#465b7e" fill-opacity="1" fill-rule="nonzero" d=" M365.24 362.54 C365.24,362.54 296.11,652.82 296.11,652.82 C296.11,652.82 496.17,526.95 496.17,526.95 C496.17,526.95 365.24,362.54 365.24,362.54z "/></g><g id="_R_G_L_3_G_L_1_G_L_19_G" transform=" translate(1024.01, 1024) translate(0, 0)"><path id="_R_G_L_3_G_L_1_G_L_19_G_D_0_P_0" fill="#5b769e" fill-opacity="1" fill-rule="nonzero" d=" M365.24 362.54 C365.24,362.54 499.52,327.28 499.52,327.28 C499.52,327.28 496.17,526.95 496.17,526.95 C496.17,526.95 365.24,362.54 365.24,362.54z "/></g><g id="_R_G_L_3_G_L_1_G_L_18_G" transform=" translate(1024.01, 1024) translate(0, 0)"><path id="_R_G_L_3_G_L_1_G_L_18_G_D_0_P_0" fill="#7c92bc" fill-opacity="1" fill-rule="nonzero" d=" M652.71 286.31 C652.71,286.31 499.52,327.28 499.52,327.28 C499.52,327.28 496.17,526.95 496.17,526.95 C496.17,526.95 652.71,286.31 652.71,286.31z "/></g><g id="_R_G_L_3_G_L_1_G_L_17_G"><path id="_R_G_L_3_G_L_1_G_L_17_G_D_0_P_0" fill="#465b7e" fill-opacity="1" fill-rule="nonzero" d=" M652.71 286.31 C652.71,286.31 365.62,362.32 365.62,362.32 C365.62,362.32 529.57,112.49 529.57,112.49 C529.57,112.49 652.71,286.31 652.71,286.31z "/></g><g id="_R_G_L_3_G_L_1_G_L_16_G"><path id="_R_G_L_3_G_L_1_G_L_16_G_D_0_P_0" fill="#7c92bc" fill-opacity="1" fill-rule="nonzero" d=" M721.4 -34.91 C721.21,-34.85 546.29,68.32 546.29,68.32 C546.29,68.32 675.16,242.57 675.16,242.57 C675.16,242.57 721.59,-34.98 721.4,-34.91z "/></g><g id="_R_G_L_3_G_L_1_G_L_15_G"><path id="_R_G_L_3_G_L_1_G_L_15_G_D_0_P_0" fill="#5b769e" fill-opacity="1" fill-rule="nonzero" d=" M721.4 -34.91 C721.21,-34.85 546.29,68.32 546.29,68.32 C546.29,68.32 595.45,-96.29 595.45,-96.29 C595.45,-96.29 721.59,-34.98 721.4,-34.91z "/></g><g id="_R_G_L_3_G_L_1_G_L_14_G"><path id="_R_G_L_3_G_L_1_G_L_14_G_D_0_P_0" fill="#465b7e" fill-opacity="1" fill-rule="nonzero" d=" M721.4 -34.91 C721.21,-34.85 652.93,-294.5 652.93,-294.5 C652.93,-294.5 595.45,-96.29 595.45,-96.29 C595.45,-96.29 721.59,-34.98 721.4,-34.91z "/></g><g id="_R_G_L_3_G_L_1_G_L_13_G"><path id="_R_G_L_3_G_L_1_G_L_13_G_D_0_P_0" fill="#7c92bc" fill-opacity="1" fill-rule="nonzero" d=" M611.84 -315.31 C611.84,-315.31 562.86,-128.39 562.86,-128.39 C562.86,-128.39 417.34,-288.89 417.34,-288.89 C417.34,-288.89 423.31,-386.17 423.31,-386.17 C423.31,-386.17 611.84,-315.31 611.84,-315.31z "/></g><g id="_R_G_L_3_G_L_1_G_L_12_G"><path id="_R_G_L_3_G_L_1_G_L_12_G_D_0_P_0" fill="#7c92bc" fill-opacity="1" fill-rule="nonzero" d=" M431.58 -584.5 C431.58,-584.5 428.42,-436.38 428.42,-436.38 C428.42,-436.38 611,-364.33 611,-364.33 C611,-364.33 431.58,-584.5 431.58,-584.5z "/></g><g id="_R_G_L_3_G_L_1_G_L_11_G"><path id="_R_G_L_3_G_L_1_G_L_11_G_D_0_P_0" fill="#546d9b" fill-opacity="1" fill-rule="nonzero" d=" M287.41 -440.69 C287.41,-440.69 417.34,-288.89 417.34,-288.89 C417.34,-288.89 423.31,-386.17 423.31,-386.17 C423.31,-386.17 287.41,-440.69 287.41,-440.69z "/></g><g id="_R_G_L_3_G_L_1_G_L_10_G"><path id="_R_G_L_3_G_L_1_G_L_10_G_D_0_P_0" fill="#465b7e" fill-opacity="1" fill-rule="nonzero" d=" M431.58 -584.5 C431.58,-584.5 428.42,-436.38 428.42,-436.38 C428.42,-436.38 306.77,-482.32 306.77,-482.32 C306.77,-482.32 431.58,-584.5 431.58,-584.5z "/></g><g id="_R_G_L_3_G_L_1_G_L_9_G"><path id="_R_G_L_3_G_L_1_G_L_9_G_D_0_P_0" fill="#546d9b" fill-opacity="1" fill-rule="nonzero" d=" M431.58 -584.5 C431.58,-584.5 168.28,-706.18 168.28,-706.18 C168.28,-706.18 306.77,-482.32 306.77,-482.32 C306.77,-482.32 431.58,-584.5 431.58,-584.5z "/></g><g id="_R_G_L_3_G_L_1_G_L_8_G"><path id="_R_G_L_3_G_L_1_G_L_8_G_D_0_P_0" fill="#546d9b" fill-opacity="1" fill-rule="nonzero" d=" M108.44 -721.78 C108.44,-721.78 -104.3,-610.76 -104.3,-610.76 C-104.3,-610.76 256.25,-475.12 256.25,-475.12 C256.25,-475.12 108.44,-721.78 108.44,-721.78z "/></g><g id="_R_G_L_3_G_L_1_G_L_7_G"><path id="_R_G_L_3_G_L_1_G_L_7_G_D_0_P_0" fill="#465b7e" fill-opacity="1" fill-rule="nonzero" d=" M22.76 -398.32 C22.76,-398.32 14,-566.5 14,-566.5 C14,-566.5 256.25,-475.12 256.25,-475.12 C256.25,-475.12 22.76,-398.32 22.76,-398.32z "/></g><g id="_R_G_L_3_G_L_1_G_L_6_G"><path id="_R_G_L_3_G_L_1_G_L_6_G_D_0_P_0" fill="#a2b1ce" fill-opacity="1" fill-rule="nonzero" d=" M22.76 -398.32 C22.76,-398.32 14.54,-565.7 14.54,-565.7 C14.54,-565.7 -113.78,-529.36 -113.78,-529.36 C-113.78,-529.36 22.76,-398.32 22.76,-398.32z "/></g><g id="_R_G_L_3_G_L_1_G_L_5_G"><path id="_R_G_L_3_G_L_1_G_L_5_G_D_0_P_0" fill="#7c92bc" fill-opacity="1" fill-rule="nonzero" d=" M-105.91 -612.73 C-105.91,-612.73 15.3,-565.7 15.3,-565.7 C15.3,-565.7 -113.78,-529.36 -113.78,-529.36 C-113.78,-529.36 -105.91,-612.73 -105.91,-612.73z "/></g><g id="_R_G_L_3_G_L_1_G_L_4_G"><path id="_R_G_L_3_G_L_1_G_L_4_G_D_0_P_0" fill="#8aa0c2" fill-opacity="1" fill-rule="nonzero" d=" M108.44 -721.78 C108.44,-721.78 -104.3,-610.76 -104.3,-610.76 C-104.3,-610.76 -260.31,-680.57 -260.31,-680.57 C-260.31,-680.57 108.44,-721.78 108.44,-721.78z "/></g><g id="_R_G_L_3_G_L_1_G_L_3_G"><path id="_R_G_L_3_G_L_1_G_L_3_G_D_0_P_0" fill="#546c9c" fill-opacity="1" fill-rule="nonzero" d=" M-113.99 -529.43 C-113.99,-529.43 -104.3,-610.76 -104.3,-610.76 C-104.3,-610.76 -260.31,-680.57 -260.31,-680.57 C-260.31,-680.57 -113.99,-529.43 -113.99,-529.43z "/></g><g id="_R_G_L_3_G_L_1_G_L_2_G"><path id="_R_G_L_3_G_L_1_G_L_2_G_D_0_P_0" fill="#465b7e" fill-opacity="1" fill-rule="nonzero" d=" M-113.99 -529.43 C-113.99,-529.43 -302.3,-517.76 -302.3,-517.76 C-302.3,-517.76 -260.31,-680.57 -260.31,-680.57 C-260.31,-680.57 -113.99,-529.43 -113.99,-529.43z "/></g><g id="_R_G_L_3_G_L_1_G_L_1_G"><path id="_R_G_L_3_G_L_1_G_L_1_G_D_0_P_0" fill="#5b769e" fill-opacity="1" fill-rule="nonzero" d=" M22.76 -398.32 C22.76,-398.32 -359.75,-280.2 -359.75,-280.2 C-359.75,-280.2 -113.78,-529.36 -113.78,-529.36 C-113.78,-529.36 22.76,-398.32 22.76,-398.32z "/></g><g id="_R_G_L_3_G_L_1_G_L_0_G" transform=" translate(1024.01, 1024) translate(0, 0)"><path id="_R_G_L_3_G_L_1_G_L_0_G_D_0_P_0" fill="#8aa0c2" fill-opacity="1" fill-rule="nonzero" d=" M-301.24 -518.08 C-301.24,-518.08 -359.75,-280.2 -359.75,-280.2 C-359.75,-280.2 -113.78,-529.36 -113.78,-529.36 C-113.78,-529.36 -301.24,-518.08 -301.24,-518.08z "/></g></g><g id="_R_G_L_3_G_L_0_G" transform=" translate(2048, 1024) translate(-1024, -1024)"><g id="_R_G_L_3_G_L_0_G_L_14_G" transform=" translate(1024, 1024) translate(0, 0)"><path id="_R_G_L_3_G_L_0_G_L_14_G_D_0_P_0" fill="#5b769e" fill-opacity="1" fill-rule="nonzero" d=" M34.82 -358.69 C34.82,-358.69 -361.72,-237.69 -361.72,-237.69 C-361.72,-237.69 51.62,-4.57 51.62,-4.57 C51.62,-4.57 34.82,-358.69 34.82,-358.69z "/></g><g id="_R_G_L_3_G_L_0_G_L_13_G" transform=" translate(1024, 1024) translate(0, 0)"><path id="_R_G_L_3_G_L_0_G_L_13_G_D_0_P_0" fill="#8aa0c2" fill-opacity="1" fill-rule="nonzero" d=" M-213.15 89.31 C-213.15,89.31 -361.72,-237.69 -361.72,-237.69 C-361.72,-237.69 51.62,-4.57 51.62,-4.57 C51.62,-4.57 -213.15,89.31 -213.15,89.31z "/></g><g id="_R_G_L_3_G_L_0_G_L_12_G" transform=" translate(1024, 1024) translate(0, 0)"><path id="_R_G_L_3_G_L_0_G_L_12_G_D_0_P_0" fill="#8aa0c2" fill-opacity="1" fill-rule="nonzero" d=" M-392.33 -192.33 C-392.33,-192.33 -469.76,-8.34 -469.76,-8.34 C-469.76,-8.34 -250.19,108.63 -250.19,108.63 C-250.19,108.63 -392.33,-192.33 -392.33,-192.33z "/></g><g id="_R_G_L_3_G_L_0_G_L_11_G" transform=" translate(1024, 1024) translate(0, 0)"><path id="_R_G_L_3_G_L_0_G_L_11_G_D_0_P_0" fill="#546c9c" fill-opacity="1" fill-rule="nonzero" d=" M-500.72 251.82 C-500.72,251.82 -469.76,-8.34 -469.76,-8.34 C-469.76,-8.34 -250.19,108.63 -250.19,108.63 C-250.19,108.63 -500.72,251.82 -500.72,251.82z "/></g><g id="_R_G_L_3_G_L_0_G_L_10_G" transform=" translate(1024, 1024) translate(0, 0)"><path id="_R_G_L_3_G_L_0_G_L_10_G_D_0_P_0" fill="#465b7e" fill-opacity="1" fill-rule="nonzero" d=" M-500.72 251.82 C-500.72,251.82 -281.91,363.35 -281.91,363.35 C-281.91,363.35 -250.19,108.63 -250.19,108.63 C-250.19,108.63 -500.72,251.82 -500.72,251.82z "/></g><g id="_R_G_L_3_G_L_0_G_L_9_G" transform=" translate(1024, 1024) translate(0, 0)"><path id="_R_G_L_3_G_L_0_G_L_9_G_D_0_P_0" fill="#465b7e" fill-opacity="1" fill-rule="nonzero" d=" M-204.67 137.89 C-204.67,137.89 -241.44,375.67 -241.44,375.67 C-241.44,375.67 40.46,424.19 40.46,424.19 C40.46,424.19 -204.67,137.89 -204.67,137.89z "/></g><g id="_R_G_L_3_G_L_0_G_L_8_G" transform=" translate(1024, 1024) translate(0, 0)"><path id="_R_G_L_3_G_L_0_G_L_8_G_D_0_P_0" fill="#546c9c" fill-opacity="1" fill-rule="nonzero" d=" M-204.67 137.89 C-204.67,137.89 52.02,41.8 52.02,41.8 C52.02,41.8 40.46,424.19 40.46,424.19 C40.46,424.19 -204.67,137.89 -204.67,137.89z "/></g><g id="_R_G_L_3_G_L_0_G_L_7_G" transform=" translate(1024, 1024) translate(0, 0)"><path id="_R_G_L_3_G_L_0_G_L_7_G_D_0_P_0" fill="#465b7e" fill-opacity="1" fill-rule="nonzero" d=" M92.8 32.03 C92.8,32.03 90.6,428.42 90.6,428.42 C90.6,428.42 324.97,332.01 324.97,332.01 C324.97,332.01 92.8,32.03 92.8,32.03z "/></g><g id="_R_G_L_3_G_L_0_G_L_6_G" transform=" translate(1024, 1024) translate(0, 0)"><path id="_R_G_L_3_G_L_0_G_L_6_G_D_0_P_0" fill="#546c9c" fill-opacity="1" fill-rule="nonzero" d=" M92.8 32.03 C92.8,32.03 391.02,8.75 391.02,8.75 C391.02,8.75 324.97,332.01 324.97,332.01 C324.97,332.01 92.8,32.03 92.8,32.03z "/></g><g id="_R_G_L_3_G_L_0_G_L_5_G" transform=" translate(1024, 1024) translate(0, 0)"><path id="_R_G_L_3_G_L_0_G_L_5_G_D_0_P_0" fill="#465b7e" fill-opacity="1" fill-rule="nonzero" d=" M499.58 84.27 C499.58,84.27 391.02,8.75 391.02,8.75 C391.02,8.75 324.97,332.01 324.97,332.01 C324.97,332.01 499.58,84.27 499.58,84.27z "/></g><g id="_R_G_L_3_G_L_0_G_L_4_G" transform=" translate(1020.566, 1016.821) translate(0, 0)"><path id="_R_G_L_3_G_L_0_G_L_4_G_D_0_P_0" fill="#465b7e" fill-opacity="1" fill-rule="nonzero" d=" M414.21 -29.5 C414.21,-29.5 566.58,-120.95 566.58,-120.95 C566.58,-120.95 519.12,53.3 519.12,53.3 C519.12,53.3 414.21,-29.5 414.21,-29.5z "/></g><g id="_R_G_L_3_G_L_0_G_L_3_G" transform=" translate(1024, 1024) translate(0, 0)"><path id="_R_G_L_3_G_L_0_G_L_3_G_D_0_P_0" fill="#5b769e" fill-opacity="1" fill-rule="nonzero" d=" M410.49 -36.94 C410.49,-36.94 562.86,-128.39 562.86,-128.39 C562.86,-128.39 417.34,-288.89 417.34,-288.89 C417.34,-288.89 410.49,-36.94 410.49,-36.94z "/></g><g id="_R_G_L_3_G_L_0_G_L_2_G" transform=" translate(1024, 1024) translate(0, 0)"><path id="_R_G_L_3_G_L_0_G_L_2_G_D_0_P_0" fill="#8aa0c2" fill-opacity="1" fill-rule="nonzero" d=" M410.49 -36.94 C410.49,-36.94 94.04,-10.19 94.04,-10.19 C94.04,-10.19 417.34,-288.89 417.34,-288.89 C417.34,-288.89 410.49,-36.94 410.49,-36.94z "/></g><g id="_R_G_L_3_G_L_0_G_L_1_G" transform=" translate(1024, 1024) translate(0, 0)"><path id="_R_G_L_3_G_L_0_G_L_1_G_D_0_P_0" fill="#5b769e" fill-opacity="1" fill-rule="nonzero" d=" M80.83 -365.05 C80.83,-365.05 94.04,-10.19 94.04,-10.19 C94.04,-10.19 417.34,-288.89 417.34,-288.89 C417.34,-288.89 80.83,-365.05 80.83,-365.05z "/></g><g id="_R_G_L_3_G_L_0_G_L_0_G" transform=" translate(1024, 1024) translate(0, 0)"><path id="_R_G_L_3_G_L_0_G_L_0_G_D_0_P_0" fill="#465b7e" fill-opacity="1" fill-rule="nonzero" d=" M287.41 -440.69 C287.41,-440.69 417.34,-288.89 417.34,-288.89 C417.34,-288.89 80.05,-364.94 80.05,-364.94 C80.05,-364.94 287.41,-440.69 287.41,-440.69z "/></g></g></g><g id="_R_G_L_2_G" transform=" translate(4096, 1024) translate(0, 0)"><path id="_R_G_L_2_G_D_0_P_0" fill="#54729c" fill-opacity="1" fill-rule="nonzero" d=" M1053.5 -608.22 C584.89,-897.78 -80,-629.33 -94.28,-22.47 C-109.64,630.01 612.43,902.58 1063.84,596.28 C995.49,501.55 968.16,464.59 916.73,391.08 C551.25,585.43 203.57,356.39 204.04,-7.65 C204.5,-371.68 555.29,-595.59 916.54,-387.16 C953.42,-445.63 1007.13,-532.89 1053.5,-608.22z "/></g><g id="_R_G_L_1_G" transform=" translate(5260.169, 1027.429) translate(0, 0)"><path id="_R_G_L_1_G_D_0_P_0" fill="#889fc1" fill-opacity="1" fill-rule="nonzero" d=" M636.99 717.8 C794.26,722.66 949.68,684.91 1071.68,605.79 C1106.69,583.73 1234.05,499.68 1323.52,326.07 C1467.22,47.21 1554.65,-242.05 1603.13,-390.19 C1638.99,-296.78 1982.3,606.41 2025.14,718.41 C2161.83,716.96 2213.47,717.27 2341.74,716.84 C2248.73,502.04 1899.11,-333.7 1811.69,-541.09 C1707.67,-795.66 1504.69,-787.93 1401.55,-550.82 C1340.6,-439.3 1168.83,252.57 924.19,379.75 C712.87,499.95 504.15,467.91 366.47,353.62 C266.1,270.32 270.93,706.5 636.99,717.8z "/></g><g id="_R_G_L_0_G" transform=" translate(5260.169, 1027.429) translate(0, 0)"><path id="_R_G_L_0_G_D_0_P_0" fill="#54729c" fill-opacity="1" fill-rule="nonzero" d=" M1053.5 -608.22 C584.73,-902.04 -78.78,-629.06 -93.4,-24.03 C-105.17,463.44 269.44,705.55 634.83,717.73 C355.83,694.57 342.33,491.57 365.71,353.04 C262.12,276.74 203.84,144.05 204.04,-7.65 C204.5,-371.68 555.29,-595.59 916.54,-387.16 C953.42,-445.63 1007.13,-532.89 1053.5,-608.22z "/></g></g><g id="time_group"/></svg>